<?xml version="1.0" encoding="UTF-8" standalone="no"?>
<!-- Created with Inkscape (http://www.inkscape.org/) -->

<svg
   version="1.1"
   id="svg2"
   width="2666.6667"
   height="2666.6667"
   viewBox="0 0 2666.6667 2666.6667"
   sodipodi:docname="艾佰客IBYC(2).ai"
   xmlns:inkscape="http://www.inkscape.org/namespaces/inkscape"
   xmlns:sodipodi="http://sodipodi.sourceforge.net/DTD/sodipodi-0.dtd"
   xmlns="http://www.w3.org/2000/svg"
   xmlns:svg="http://www.w3.org/2000/svg">
  <defs
     id="defs6">
    <clipPath
       clipPathUnits="userSpaceOnUse"
       id="clipPath18">
      <path
         d="M 0,2000 H 2000 V 0 H 0 Z"
         id="path16" />
    </clipPath>
  </defs>
  <sodipodi:namedview
     id="namedview4"
     pagecolor="#ffffff"
     bordercolor="#000000"
     borderopacity="0.25"
     inkscape:showpageshadow="2"
     inkscape:pageopacity="0.0"
     inkscape:pagecheckerboard="0"
     inkscape:deskcolor="#d1d1d1" />
  <g
     id="g8"
     inkscape:groupmode="layer"
     inkscape:label="艾佰客IBYC(2)"
     transform="matrix(1.3333333,0,0,-1.3333333,0,2666.6667)">
    <path
       d="m 615.775,1215.58 h 46.33 v -156.866 h -46.33 z"
       style="fill:#ff9000;fill-opacity:1;fill-rule:nonzero;stroke:none"
       id="path10" />
    <g
       id="g12">
      <g
         id="g14"
         clip-path="url(#clipPath18)">
        <g
           id="g20"
           transform="translate(839.4377,1090.432)">
          <path
             d="m 0,0 c -2.664,-1.534 -5.539,-2.548 -8.627,-3.046 -3.09,-0.499 -7.935,-0.747 -14.538,-0.747 H -86.43 v 36.545 h 64.223 c 10.649,0 18.265,-1.074 22.846,-3.218 6.39,-2.988 9.586,-7.662 9.586,-14.02 C 10.225,8.924 6.814,3.753 0,0 m 29.715,46.657 c 9.159,2.681 16.747,7.546 22.765,14.595 6.017,7.048 9.027,14.633 9.027,22.754 0,6.281 -1.864,12.334 -5.591,18.157 -5.22,8.427 -12.941,14.518 -23.166,18.273 -8.841,3.14 -22.9,4.712 -42.176,4.712 H -132.76 V 97.056 h 46.33 v 0.166 h 64.223 c 10.649,0 18.265,-1.074 22.846,-3.218 6.39,-2.988 9.586,-7.662 9.586,-14.02 0,-6.59 -3.411,-11.761 -10.225,-15.514 -2.771,-1.534 -5.671,-2.548 -8.707,-3.045 -3.035,-0.5 -7.855,-0.748 -14.458,-0.748 H -86.43 V 77.8 h -46.33 V -31.718 h 120.618 c 18.105,0 31.765,1.129 40.978,3.39 9.211,2.259 16.695,6.378 22.446,12.354 6.71,6.895 10.065,15.475 10.065,25.742 0,17.621 -10.544,29.917 -31.632,36.889"
             style="fill:#ff9000;fill-opacity:1;fill-rule:nonzero;stroke:none"
             id="path22" />
        </g>
        <g
           id="g24"
           transform="translate(986.5754,1127.5508)">
          <path
             d="M 0,0 -80.678,88.029 H -26.36 L 23.644,26.776 76.365,88.029 h 55.117 L 46.33,-1.379 V -68.837 H 0 Z"
             style="fill:#ff9000;fill-opacity:1;fill-rule:nonzero;stroke:none"
             id="path26" />
        </g>
        <g
           id="g28"
           transform="translate(1291.0758,1086.6393)">
          <path
             d="m 0,0 v -27.925 h -76.045 c -14.486,0 -25.561,0.535 -33.23,1.609 -26.735,3.753 -45.746,14.517 -57.034,32.292 -7.457,11.875 -11.183,26.584 -11.183,44.129 0,21.068 5.696,38.229 17.095,51.484 8.2,9.499 19.195,16.434 32.99,20.801 13.791,4.367 31.657,6.55 53.598,6.55 H 0 v -27.925 h -68.536 c -20.769,0 -36.001,-3.985 -45.692,-11.952 -7.988,-6.59 -11.981,-18.541 -11.981,-35.855 0,-23.138 6.23,-38.345 18.691,-45.623 C -98.786,2.528 -85.206,0 -66.779,0 Z"
             style="fill:#ff9000;fill-opacity:1;fill-rule:nonzero;stroke:none"
             id="path30" />
        </g>
        <g
           id="g32"
           transform="translate(716.5168,900.4874)">
          <path
             d="M 0,0 V 11.962 C 22.832,16.464 40.894,22.364 54.188,29.645 40.067,39.697 27.61,55.471 16.817,76.973 h 26.16 C 50.859,61.712 60.201,49.578 71.004,40.566 82.215,49.578 91.343,61.712 98.409,76.973 h 26.782 C 113.98,55.471 101.524,39.697 87.821,29.645 101.105,22.364 119.168,16.464 142.008,11.962 V 0 C 110.447,5.9 86.78,12.482 71.004,19.763 53.974,12.132 30.305,5.55 0,0 m -1.245,94.656 v 13.522 h 33.633 v 11.442 h 22.423 v -11.442 h 32.387 v 11.442 h 22.422 v -11.442 h 33.633 V 94.656 H 109.62 V 82.694 H 87.198 V 94.656 H 54.811 V 82.694 H 32.388 v 11.962 z"
             style="fill:#304c95;fill-opacity:1;fill-rule:nonzero;stroke:none"
             id="path34" />
        </g>
        <g
           id="g36"
           transform="translate(947.5916,915.0497)">
          <path
             d="m 0,0 h 35.501 c 5.392,0 8.098,2.6 8.098,7.801 V 23.924 H 0 Z M 0,36.926 H 43.599 V 58.771 H 0 Z M -22.423,84.775 V 97.777 H 70.38 V 84.775 H 30.519 c -0.418,-2.081 -1.041,-5.031 -1.869,-8.842 -0.418,-1.739 -0.622,-3.12 -0.622,-4.161 h 37.37 V 7.281 C 66.225,-5.891 58.751,-12.132 42.976,-11.442 H -21.8 V 71.772 H 4.982 c 0,0.342 0.204,0.862 0.623,1.561 1.246,4.501 2.073,8.321 2.491,11.442 z M -57.924,-15.082 V 57.73 c -4.983,-2.08 -10.385,-3.819 -16.194,-5.201 v 11.442 c 13.703,7.623 23.045,20.974 28.028,40.047 h 21.799 C -27.2,92.226 -31.142,83.035 -36.125,76.453 v -91.535 z"
             style="fill:#304c95;fill-opacity:1;fill-rule:nonzero;stroke:none"
             id="path38" />
        </g>
        <g
           id="g40"
           transform="translate(1085.2378,977.9808)">
          <path
             d="M 0,0 -1.246,-1.04 C 6.229,-5.55 13.907,-9.54 21.8,-13.002 29.682,-9.54 37.371,-5.201 44.844,0 Z m -8.096,-64.491 h 51.695 c 5.391,-0.35 7.883,1.56 7.474,5.721 v 8.841 H -8.096 Z m -23.046,-11.442 v 38.486 H 73.495 V -59.291 C 73.904,-70.732 67.676,-76.274 54.811,-75.933 Z M -46.713,13.522 V 33.805 H 7.475 v 7.281 H 35.502 V 33.805 H 89.066 V 13.522 H 66.644 v 7.801 h -90.311 v -7.801 z m -3.114,-52.529 v 10.921 c 19.094,2.081 35.502,4.681 49.204,7.802 -6.646,3.12 -13.498,6.762 -20.553,10.923 -6.229,-2.081 -13.499,-3.82 -21.8,-5.201 V -3.641 C -27.619,0.52 -15.785,7.622 -7.473,17.683 H 18.063 C 16.817,15.602 15.357,13.522 13.702,11.442 H 74.118 V 0 C 64.98,-8.321 55.219,-14.912 44.844,-19.764 c 8.721,-2.779 24.496,-5.551 47.336,-8.322 v -10.921 c -30.733,2.771 -53.982,6.411 -69.757,10.921 -15.785,-4.51 -39.863,-8.15 -72.25,-10.921"
             style="fill:#304c95;fill-opacity:1;fill-rule:nonzero;stroke:none"
             id="path42" />
        </g>
        <g
           id="g44"
           transform="translate(1197.6246,1138.0009)">
          <path
             d="M 0,0 C 23.333,5.171 33.855,16.304 38.156,40.021 39.678,30.011 42.692,20.642 49.602,12.962 56.669,5.108 65.826,1.505 76.108,0.065 52.769,-3.172 41.375,-17.614 38.179,-39.977 34.2,-18.377 23.462,-3.328 0,0"
             style="fill:#00a8ff;fill-opacity:1;fill-rule:nonzero;stroke:none"
             id="path46" />
        </g>
      </g>
    </g>
  </g>
</svg>
